<svg xmlns="http://www.w3.org/2000/svg" viewBox="0 0 64 64" width="64" height="64" role="img">
  <title>Woman 2</title>
  <rect width="64" height="64" fill="#f5e4dc"/>
  <path d="M12 64c0-9 8-14 20-14s20 5 20 14Z" fill="#c96f5a"/>
  <path d="M22 40h20v10a10 10 0 0 1-20 0Z" fill="#583421"/>
  <circle cx="32" cy="30" r="15" fill="#6d4630"/>
  <path d="M32 17c-10 0-16 6-16 15 0 4 1 6 2 8-4 1-6 4-6 8h40c0-4-2-7-6-8 1-2 2-4 2-8 0-9-6-15-16-15Z" fill="#1d1512"/>
  <circle cx="32" cy="31" r="13" fill="#6d4630"/>
  <circle cx="17" cy="34" r="7" fill="#1d1512"/><circle cx="47" cy="34" r="7" fill="#1d1512"/>
  <circle cx="27" cy="30" r="1.8" fill="#2b2320"/>
  <circle cx="37" cy="30" r="1.8" fill="#2b2320"/>
  <path d="M28.5 36.5c2 1.6 5 1.6 7 0" fill="none" stroke="#2b2320" stroke-width="1.6" stroke-linecap="round" opacity=".75"/>
</svg>
